<svg width="46" height="39" viewBox="0 0 46 39" fill="none" xmlns="http://www.w3.org/2000/svg">
<mask id="mask0_1296_8638" style="mask-type:luminance" maskUnits="userSpaceOnUse" x="0" y="0" width="46" height="39">
<path d="M45.1976 0H0V39H45.1976V0Z" fill="white"/>
</mask>
<g mask="url(#mask0_1296_8638)">
<path d="M45.1451 29.1059C44.8124 24.5758 43.0087 19.3168 40.0842 14.3008C37.1598 9.26748 33.4648 5.10193 29.6648 2.53317C29.3671 2.32489 29.0694 2.15133 28.7892 1.99512C29.5247 3.26214 30.1026 5.01515 30.2076 7.39299C32.6768 9.63197 35.0759 12.6519 37.0372 16.0365C39.6639 20.5491 41.3626 25.409 41.6603 29.3662C41.9405 32.9417 41.0649 34.7641 40.1718 35.2848C39.2787 35.8055 37.2473 35.6319 34.2528 33.6012C31.2408 31.5532 28.1413 28.1686 25.6371 24.1593C25.3919 23.7774 25.1468 23.3783 24.9191 22.9791C23.5707 20.6706 22.4675 18.2754 21.6795 15.9497C20.9265 13.728 20.4361 11.5758 20.2961 9.63197C20.156 7.93104 20.2961 6.6293 20.5587 5.67469C19.9984 5.91768 19.3154 6.28217 18.5099 6.83758C17.932 7.23678 17.3366 7.68805 16.7412 8.2261C16.7412 8.74679 16.7587 9.3022 16.8112 9.89232C17.0564 13.1553 18.0546 16.8001 19.7007 20.4624C20.3311 21.8856 21.0491 23.3088 21.8721 24.7147C22.4325 25.6867 23.0279 26.6239 23.6758 27.5264C26.2325 31.2754 29.227 34.3996 32.2915 36.465C35.1459 38.409 37.3874 38.9991 39.051 38.9991C40.3644 38.9991 41.31 38.6346 41.9229 38.2875C43.3239 37.4891 45.6179 35.2154 45.1451 29.1059Z" fill="#D3AA46"/>
<path d="M25.1991 0.711005C23.8682 -0.0353233 21.0489 -0.816365 16.4783 1.94331C16.1806 2.11688 15.8654 2.32515 15.5502 2.53343C11.7677 5.10219 8.07274 9.26774 5.1483 14.3011C2.22385 19.3171 0.420156 24.5761 0.0699226 29.1062C-0.402892 35.2156 1.89113 37.4893 3.30958 38.2877C3.92248 38.6349 4.86811 38.9994 6.16397 38.9994C7.82758 38.9994 10.0691 38.4092 12.941 36.4653C15.988 34.3999 18.9825 31.2757 21.5392 27.5267C21.1539 26.8845 20.7512 26.2423 20.3659 25.5828C20.0857 25.1142 19.823 24.6455 19.5779 24.1596C17.0737 28.1516 13.9742 31.5708 10.9621 33.6015C7.98519 35.6322 5.95383 35.8058 5.06074 35.2851C4.15013 34.7644 3.29206 32.9419 3.57225 29.3665C3.86995 25.4092 5.55107 20.5321 8.17781 16.0367C10.1391 12.6522 12.5557 9.64958 15.0248 7.39324C15.8654 6.62956 16.706 5.97001 17.529 5.39725C19.6304 3.97402 21.2415 3.47068 22.3447 3.47068C22.8 3.47068 23.1678 3.55746 23.448 3.71367C23.9208 3.99137 24.3761 4.61621 24.6563 5.67495H24.6738C24.9364 6.62956 25.059 7.93129 24.9364 9.63223C24.7788 11.5761 24.306 13.7283 23.5355 15.95C24.0609 17.4426 24.7438 18.97 25.5143 20.4626C27.1604 16.8178 28.1761 13.1729 28.4213 9.89257C28.4738 9.30245 28.4913 8.7644 28.4913 8.24371C28.4738 3.36654 26.4775 1.45733 25.1991 0.711005Z" fill="#B8860B"/>
</g>
</svg>
